<?xml version='1.0' encoding='UTF-8'?>
<svg x="0px" y="0px" viewBox="0 0 32 32" version="1.1" xmlns="http://www.w3.org/2000/svg" xmlns:xlink="http://www.w3.org/1999/xlink" xml:space="preserve" id="Layer_1" style="enable-background:new 0 0 32 32">
  <style type="text/css">
	.Yellow{fill:#FFB115;}
	.Red{fill:#D11C1C;}
	.Black{fill:#727272;}
	.Blue{fill:#1177D7;}
	.White{fill:#FFFFFF;}
	.Green{fill:#039C23;}
	.st0{opacity:0.75;}
	.st1{opacity:0.5;}
	.st2{opacity:0.25;}
	.st3{fill:#FFB115;}
</style>
  <g id="ShowLegend">
    <g class="st1">
      <polygon points="30,0 4,0 4,2 30,2 30,28 32,28 32,2 32,0   " class="Black" />
    </g>
    <rect x="6" y="4" width="6" height="6" rx="0" ry="0" class="Red" />
    <rect x="6" y="12" width="6" height="6" rx="0" ry="0" class="Blue" />
    <rect x="6" y="20" width="6" height="6" rx="0" ry="0" class="Yellow" />
    <path d="M4,28V0H2v30h30v-2H4z M26,8H16V6h10V8z M26,14H16v2h10V14z M26,22H16v2h10V22z" class="Black" />
  </g>
</svg>